<svg id="Layer_1" data-name="Layer 1" xmlns="http://www.w3.org/2000/svg" viewBox="0 0 141.72 52.45"><defs><style>.cls-1{fill:#231f20;}</style></defs><title>symphony</title><path class="cls-1" d="M28.87,12.87A3.44,3.44,0,0,0,30.11,11a2.84,2.84,0,0,0-.27-2.16,4,4,0,0,0-1.62-1.6A3.36,3.36,0,0,0,26,6.92a3.55,3.55,0,0,0-1.91.9A4.67,4.67,0,0,0,23,9.48a7.61,7.61,0,0,0-.5,2,12,12,0,0,0,0,2.09,45.43,45.43,0,0,0,.64,5.23q0.47,2.59.7,5.23a34.4,34.4,0,0,1,.07,5.25,13.77,13.77,0,0,1-1.3,5,9.36,9.36,0,0,1-3.23,3.83,13.85,13.85,0,0,1-4.6,2,23.28,23.28,0,0,1-2.54.47,13.55,13.55,0,0,1-2.59.08,11.82,11.82,0,0,1-2.51-.43,7.85,7.85,0,0,1-2.32-1.12A8,8,0,0,1,2.4,36.81a10.12,10.12,0,0,1-1.25-3,11.34,11.34,0,0,1-.27-3.38A13.81,13.81,0,0,1,1.53,27,13.37,13.37,0,0,1,3,23.94a10.37,10.37,0,0,1,2.19-2.47,9.68,9.68,0,0,1,2-1.29,9.81,9.81,0,0,1,2.31-.75,10.41,10.41,0,0,1,2.42-.18,9.23,9.23,0,0,1,2.39.42,6.79,6.79,0,0,1,2.14,1.12,6.46,6.46,0,0,1,1.6,1.82,6.56,6.56,0,0,1,.84,2.17,1.87,1.87,0,0,1,.07.4,0.28,0.28,0,0,1-.22.37,0.3,0.3,0,0,1-.42-0.17,0.85,0.85,0,0,1-.13-0.48,1.89,1.89,0,0,0-.07-0.52,7.44,7.44,0,0,0-.43-1.17,5.41,5.41,0,0,0-.64-1,6.08,6.08,0,0,0-1.82-1.55A7,7,0,0,0,13,19.82a9.9,9.9,0,0,0-4.85.4,9,9,0,0,0-4,2.71,10.07,10.07,0,0,0-1.74,2.77A13.79,13.79,0,0,0,1.53,29a12.8,12.8,0,0,0-.08,3.39,9.81,9.81,0,0,0,.87,3.16,8,8,0,0,0,1.91,2.56,7.38,7.38,0,0,0,3,1.6A9.39,9.39,0,0,0,9.67,40a13.22,13.22,0,0,0,2.56-.22,14.57,14.57,0,0,0,2.47-.69A13,13,0,0,0,16.94,38a8.14,8.14,0,0,0,3.31-3.63,13.3,13.3,0,0,0,1.14-4.83,30.72,30.72,0,0,0-.23-5.17q-0.33-2.56-.6-5.16-0.1-1.2-.18-2.52a22.78,22.78,0,0,1,0-2.62,15,15,0,0,1,.35-2.56,9.09,9.09,0,0,1,.89-2.36A6.27,6.27,0,0,1,23,7.54a5.72,5.72,0,0,1,1.82-1.07,4.87,4.87,0,0,1,2-.27,4.1,4.1,0,0,1,2,.75,4.52,4.52,0,0,1,1.5,1.76A3.61,3.61,0,0,1,30.68,11a4.12,4.12,0,0,1-.35,1.09,4.49,4.49,0,0,1-.62,1l-0.28.3a0.46,0.46,0,0,1-.35.17,0.28,0.28,0,0,1-.3-0.22A0.36,0.36,0,0,1,28.87,12.87Z" transform="translate(-0.85 -0.87)"/><path class="cls-1" d="M42.78,27.88a9.07,9.07,0,0,1-1.14,1.84,14,14,0,0,1-1.47,1.57,15.39,15.39,0,0,1-1.71,1.35q-0.9.62-1.81,1.19l-0.52,1.64-0.52,1.64q-0.84,2.51-1.76,5a26.79,26.79,0,0,1-2.32,4.75,13.41,13.41,0,0,1-1.39,1.91,6.61,6.61,0,0,1-1.82,1.47A4.38,4.38,0,0,1,26,50.7a2.72,2.72,0,0,1-2-1.12,3.82,3.82,0,0,1-.77-1.69,5.78,5.78,0,0,1,0-1.86,8.61,8.61,0,0,1,.48-1.85,10.32,10.32,0,0,1,.82-1.69A12.08,12.08,0,0,1,27,39.4a33.18,33.18,0,0,1,3.24-2.46L31.73,36l1.49-.92q0.33-1.2.65-2.41t0.69-2.37a10.88,10.88,0,0,1-1.1,1.34A8.46,8.46,0,0,1,31.81,33a5.13,5.13,0,0,1-2,.8A1.76,1.76,0,0,1,29,33.75a2,2,0,0,1-.69-0.45,2.67,2.67,0,0,1-.5-0.7,3.75,3.75,0,0,1-.3-0.84,6.85,6.85,0,0,1-.13-2.52,17.94,17.94,0,0,1,.5-2.49,22.82,22.82,0,0,1,.8-2.47q0.47-1.2,1-2.37,0.43-1,1-1.91a8.2,8.2,0,0,1,1.25-1.71,0.8,0.8,0,0,1,1.37.5,1.51,1.51,0,0,1-.05.74,5.83,5.83,0,0,0-.18.74,31.44,31.44,0,0,1-1.07,3.48q-0.64,1.71-1.2,3.44l-0.4,1.22q-0.2.62-.37,1.29-0.1.3-.18,0.6t-0.15.6c0,0.11-.06.25-0.1,0.4s-0.08.32-.12,0.5a1.53,1.53,0,0,0,0,.5,0.55,0.55,0,0,0,.2.37,1,1,0,0,0,.6.2,2.32,2.32,0,0,0,.67-0.1,3.05,3.05,0,0,0,.65-0.28A2.51,2.51,0,0,0,32,32.09a10.69,10.69,0,0,0,1.39-1.45q0.62-.79,1.19-1.65L35,28.33q0.18-.32.35-0.65l0,0q0.4-1.27.84-2.52t1-2.49q0.47-1.07,1.07-2.24a5.19,5.19,0,0,1,1.57-1.87,2,2,0,0,1,.35-0.2,1.27,1.27,0,0,1,.43-0.12,0.73,0.73,0,0,1,.38.07,0.5,0.5,0,0,1,.23.35,0.48,0.48,0,0,1-.08.37,0.49,0.49,0,0,1-.35.2,0.29,0.29,0,0,1-.07.3l-0.17.3A12.26,12.26,0,0,0,40,21.61q-0.22.92-.48,1.86-0.64,2.37-1.27,4.7t-1.3,4.66l0.9-.64A19,19,0,0,0,39.45,31a12.09,12.09,0,0,0,1.45-1.47q0.33-.4.62-0.82A7.71,7.71,0,0,0,42,27.78a1.3,1.3,0,0,1,.18-0.32,0.27,0.27,0,0,1,.35-0.05A0.33,0.33,0,0,1,42.78,27.88ZM27,40.38a12.3,12.3,0,0,0-1.62,1.92,10.29,10.29,0,0,0-1.15,2.22,11.75,11.75,0,0,0-.35,1.2A4.88,4.88,0,0,0,23.74,47,4.22,4.22,0,0,0,24,48.21a2.46,2.46,0,0,0,.67,1,1.84,1.84,0,0,0,1,.54,2.57,2.57,0,0,0,1.05,0,3.24,3.24,0,0,0,1-.43,4.28,4.28,0,0,0,.87-0.72,6.29,6.29,0,0,0,1.32-2q0.45-1.12.82-2.29,0.63-2.07,1.19-4.13T33,36q-1.6,1-3.13,2A21.12,21.12,0,0,0,27,40.38Z" transform="translate(-0.85 -0.87)"/><path class="cls-1" d="M40.17,35.24l4-16q0.1-.37.23-0.79a3.11,3.11,0,0,1,.35-0.75,1.16,1.16,0,0,1,.57-0.47,1.26,1.26,0,0,1,.89.07,1.23,1.23,0,0,1,.67.52,1.45,1.45,0,0,1,.17.69,2.59,2.59,0,0,1-.13.79L46.69,20l-2.91,9,0.82-1.55q0.42-.79.85-1.55,0.63-1.14,1.32-2.24t1.45-2.14q0.7-.9,1.64-1.89a5.33,5.33,0,0,1,2-1.39,1.79,1.79,0,0,1,1.62.1,2.37,2.37,0,0,1,1,1.3,6.42,6.42,0,0,1,.33,2.44,14.31,14.31,0,0,1-.33,2.44q-0.07.37-.15,0.7t-0.18.67q0.67-1.1,1.37-2.16t1.5-2.06q0.7-.87,1.54-1.81a6.16,6.16,0,0,1,1.84-1.44,1.85,1.85,0,0,1,1.59-.13,1.78,1.78,0,0,1,1,1.27,5,5,0,0,1,.1,2.37,23.58,23.58,0,0,1-.57,2.31q-0.3,1-.67,2t-0.8,2l-1.24,3.14-0.37.94a5.43,5.43,0,0,0-.33,1.15,1.9,1.9,0,0,0,0,1,0.8,0.8,0,0,0,.85.4,2.34,2.34,0,0,0,1.09-.27,4.66,4.66,0,0,0,1-.65,6.5,6.5,0,0,0,.8-0.85q0.37-.47.67-0.9A27.08,27.08,0,0,0,66,28l0.13-.37a0.41,0.41,0,0,1,.23-0.27,0.36,0.36,0,0,1,.35,0,0.35,0.35,0,0,1,.22.25,0.43,0.43,0,0,1,0,.38,2.1,2.1,0,0,0-.18.35l-0.57,1.17q-0.57,1.07-1.25,2.12a14.66,14.66,0,0,1-1.52,2q-0.4.43-.87,0.87a7.07,7.07,0,0,1-1,.77,4.56,4.56,0,0,1-1.1.52,2.65,2.65,0,0,1-1.22.08,1.82,1.82,0,0,1-1.05-.48,2.53,2.53,0,0,1-.59-0.92,4.23,4.23,0,0,1-.25-1.14,7.87,7.87,0,0,1,0-1.14,11.92,11.92,0,0,1,.33-2.51q0.3-1.24.72-2.47t0.92-2.42q0.5-1.19,1-2.36,0.27-.67.55-1.32a11.91,11.91,0,0,0,.48-1.32,0.83,0.83,0,0,0,0-.47c0-.09-0.18-0.11-0.45-0.07a2.42,2.42,0,0,0-1.19.47,6.62,6.62,0,0,0-1,.92,10.64,10.64,0,0,0-.87,1.1L57.05,22.8q-0.87,1.2-1.64,2.47t-1.47,2.54l-1,1.94q-0.47,1.17-1,2.31a17.4,17.4,0,0,1-1.17,2.21q-0.27.47-.55,0.9a6.46,6.46,0,0,1-.65.84,0.82,0.82,0,0,1-1.4-.47,2.45,2.45,0,0,1,.12-0.92q0.15-.48.25-0.89,0.33-1.24.8-2.54,0.4-1.07.79-2.19t0.75-2.22L51.47,25q0.3-.89.57-1.79t0.58-1.8a4.51,4.51,0,0,0,.25-1.81,0.48,0.48,0,0,0-.43-0.52,1.83,1.83,0,0,0-.82.18,5.47,5.47,0,0,0-.89.5,4.81,4.81,0,0,0-.57.43,14.2,14.2,0,0,0-1.6,1.92q-0.74,1.05-1.4,2.12-0.94,1.5-1.76,3.09t-1.59,3.19L43,32.26q-0.39.84-.75,1.71a5.18,5.18,0,0,0-.18.5Q42,34.74,41.91,35l-0.2.53a0.77,0.77,0,0,1-.4.52,0.93,0.93,0,0,1-.59.1,0.74,0.74,0,0,1-.47-0.28A0.71,0.71,0,0,1,40.17,35.24Z" transform="translate(-0.85 -0.87)"/><path class="cls-1" d="M70.46,18.89a8.82,8.82,0,0,1-.07,1.87q-0.13.94-.3,1.84-0.13.57-.23,1.15l-0.2,1.15q0.53-.9,1.09-1.77A19.09,19.09,0,0,1,72,21.43a12,12,0,0,1,1.4-1.5,6.92,6.92,0,0,1,1.82-1.24,3.2,3.2,0,0,1,1.87-.28,2.44,2.44,0,0,1,1.62,1.35,6.18,6.18,0,0,1,.75,2.31,10.66,10.66,0,0,1,0,2.52,13.07,13.07,0,0,1-.55,2.52A22.29,22.29,0,0,1,78,29.39q-0.47,1-1.09,2.07a11.51,11.51,0,0,1-1.44,2A8.84,8.84,0,0,1,73.67,35a5.88,5.88,0,0,1-2.21.84,3.4,3.4,0,0,1-2.31-.4,3,3,0,0,1-1.4-1.84,0.53,0.53,0,0,1-.07-0.23q-0.53,1.91-1.09,3.78t-1.19,3.78q-0.43,1.3-.89,2.61t-1,2.57q-0.47,1.17-1,2.32a12.46,12.46,0,0,1-1.3,2.19l-0.69.89a6.94,6.94,0,0,1-.84.89,5.3,5.3,0,0,1-1,.69,2.17,2.17,0,0,1-1.05.28,1.14,1.14,0,0,1-.84-0.27,1.3,1.3,0,0,1-.35-0.67,2.8,2.8,0,0,1,0-.87,5.34,5.34,0,0,1,.15-0.84,16,16,0,0,1,.79-2.44q0.49-1.17,1-2.34t1.17-2.47q0.6-1.2,1.24-2.44,0.87-1.74,1.79-3.44t1.82-3.41q0.33-1.17.64-2.34l0.6-2.34,0.47-1.86q0.23-.92.5-1.82,0.37-1.27.79-2.57a20.44,20.44,0,0,1,1-2.51,8.51,8.51,0,0,1,.67-1.2l0.57-.74a0.74,0.74,0,0,1,.45-0.2C70.33,18.53,70.44,18.64,70.46,18.89ZM61.4,40.75l-1.19,2.46q-0.58,1.22-1.12,2.49t-1,2.42a16.39,16.39,0,0,0-.74,2.49c0,0.09-.05.22-0.08,0.4a4.48,4.48,0,0,0-.07.55,1.78,1.78,0,0,0,0,.5,0.3,0.3,0,0,0,.25.25A0.42,0.42,0,0,0,58,52.1a5.12,5.12,0,0,0,.32-0.45,7.71,7.71,0,0,0,1-2.09q0.35-1.12.79-2.19,1.17-2.84,2.12-5.72T64,35.84Q62.64,38.31,61.4,40.75Zm8-5.88a1.91,1.91,0,0,0,1.8,0,4.41,4.41,0,0,0,1.4-1.24,17.55,17.55,0,0,0,1.27-2.12q0.57-1.12,1-2.22t1-2.42q0.45-1.22.82-2.49,0.17-.57.28-1.14t0.25-1.14a12,12,0,0,0,.22-1.24,1.91,1.91,0,0,0-.22-1.2,1,1,0,0,0-.75-0.55,1.88,1.88,0,0,0-.94.15,4.44,4.44,0,0,0-.94.54q-0.45.33-.72,0.57a13,13,0,0,0-1.64,1.92q-0.74,1.05-1.4,2.12l-0.6,1.05q-0.3.52-.57,1.09a5.69,5.69,0,0,0-.23.54,5.52,5.52,0,0,1-.23.53l-0.74,2.91-0.37,1.4a4.25,4.25,0,0,0,.23,1.74A2,2,0,0,0,69.36,34.87Z" transform="translate(-0.85 -0.87)"/><path class="cls-1" d="M80.05,35.3a8.86,8.86,0,0,1,.07-1.87q0.14-.93.33-1.84,0.23-1.14.42-2.26t0.42-2.26q0.17-.87.38-1.69l0.45-1.69q0.67-2.61,1.4-5.2t1.57-5.2q0.43-1.3.9-2.61t1-2.57Q87.44,7,88,5.8a12.49,12.49,0,0,1,1.3-2.19L90,2.72a8.11,8.11,0,0,1,.84-0.9,4.58,4.58,0,0,1,1-.69A2.24,2.24,0,0,1,92.82.87a1.09,1.09,0,0,1,.8.27,1.3,1.3,0,0,1,.35.67,2.79,2.79,0,0,1,0,.87,5.34,5.34,0,0,1-.15.84A16.06,16.06,0,0,1,93.07,6q-0.49,1.17-1,2.34t-1.17,2.47q-0.6,1.2-1.24,2.44l-1.79,3.43Q87,18.32,86.07,20q-0.33,1.17-.64,2.36l-0.6,2.36-0.7,2.77q0.54-1,1.1-1.92t1.2-1.92q0.67-1.07,1.44-2.09a14.46,14.46,0,0,1,1.71-1.89l0.64-.57a4.83,4.83,0,0,1,.72-0.53,3.71,3.71,0,0,1,.8-0.37,1.85,1.85,0,0,1,.85-0.07,1.25,1.25,0,0,1,.9.59,3,3,0,0,1,.4,1.09A5.81,5.81,0,0,1,94,21.08q0,0.65-.1,1.09a16.41,16.41,0,0,1-.6,2.51q-0.4,1.24-.87,2.44L91.45,29.5q-0.47,1.19-.9,2.42-0.2.5-.38,1a3.37,3.37,0,0,0-.18,1.1,0.57,0.57,0,0,0,.4.69,2.21,2.21,0,0,0,.9,0,3.41,3.41,0,0,0,1.12-.47,5.75,5.75,0,0,0,1-.77,8,8,0,0,0,.8-0.94l0.7-1a11.56,11.56,0,0,0,.67-1q0.3-.52.57-1.05a3.7,3.7,0,0,0,.27-0.5q0.1-.23.23-0.5A4.27,4.27,0,0,0,96.84,28a2,2,0,0,1,.27-0.54,0.39,0.39,0,0,1,.64,0,0.32,0.32,0,0,1,.05.28l-0.12.28q-0.13.3-.28,0.59l-0.32.58q-0.57,1.07-1.24,2.11a21.33,21.33,0,0,1-1.44,2q-0.37.43-.8,0.89a8.85,8.85,0,0,1-.9.82,5.14,5.14,0,0,1-1,.62,3,3,0,0,1-1.14.28,1.87,1.87,0,0,1-1.14-.2,2.33,2.33,0,0,1-.77-0.7,3.22,3.22,0,0,1-.45-1A4.25,4.25,0,0,1,88,32.93a8.54,8.54,0,0,1,.22-2.44q0.28-1.2.65-2.37t0.68-2q0.38-1,.79-2l0.8-1.91q0.27-.67.62-1.37a4.61,4.61,0,0,0,.45-1.4c0-.11-0.08-0.17-0.25-0.17a1.75,1.75,0,0,0-.55.1l-0.58.2a1.44,1.44,0,0,0-.32.13,6.45,6.45,0,0,0-1.22,1.12q-0.55.65-1.05,1.29a34.71,34.71,0,0,0-2.09,3.18q-1,1.64-1.82,3.34-0.43.84-.85,1.69T82.73,32l0,0.07-0.17.4a4,4,0,0,1-.17.47,2.74,2.74,0,0,1-.23.43l0,0.1c-0.11.2-.22,0.4-0.32,0.6a5.42,5.42,0,0,1-.35.6l-0.28.37a3.35,3.35,0,0,1-.32.37,0.74,0.74,0,0,1-.45.2Q80.09,35.67,80.05,35.3Zm9.06-21.86q0.64-1.24,1.2-2.46t1.14-2.49q0.5-1.2,1-2.42a16.34,16.34,0,0,0,.74-2.49c0-.09.05-0.22,0.08-0.4a4.3,4.3,0,0,0,.07-0.55,1.82,1.82,0,0,0,0-.5A0.3,0.3,0,0,0,93,1.87a0.45,0.45,0,0,0-.47.22,4.15,4.15,0,0,0-.33.45,8.37,8.37,0,0,0-1,2.09,21.22,21.22,0,0,1-.82,2.19q-1.14,2.81-2.07,5.65t-1.77,5.78q0.67-1.17,1.29-2.37Z" transform="translate(-0.85 -0.87)"/><path class="cls-1" d="M97.1,26.64a11.73,11.73,0,0,1,.68-2.12,13.36,13.36,0,0,1,1.07-2,11.25,11.25,0,0,1,1.4-1.76,9.86,9.86,0,0,1,1.72-1.4,6.9,6.9,0,0,1,2-.9,4.1,4.1,0,0,1,2.14,0,3.88,3.88,0,0,1,1.77.94A5.13,5.13,0,0,1,109,21a7.75,7.75,0,0,1,.62,2.19,9.42,9.42,0,0,1,0,2.31,13.38,13.38,0,0,1-.47,2.27,13.17,13.17,0,0,1-.84,2.12,14,14,0,0,1-1.19,2,11.92,11.92,0,0,1-1.62,1.89,8.61,8.61,0,0,1-2,1.4,5,5,0,0,1-2.31.55,3.51,3.51,0,0,1-2.62-1,5.74,5.74,0,0,1-1.39-2.37,9.69,9.69,0,0,1-.42-3A13.56,13.56,0,0,1,97.1,26.64Zm2.57,0.74A22.35,22.35,0,0,0,99,29.84a8.65,8.65,0,0,0-.18,2.56,5.76,5.76,0,0,0,.15.92,3,3,0,0,0,.37.89,2.09,2.09,0,0,0,.64.65,1.33,1.33,0,0,0,.92.18,3.28,3.28,0,0,0,1.12-.4,4.24,4.24,0,0,0,.94-0.74,8.35,8.35,0,0,0,.79-1c0.24-.35.47-0.67,0.67-1a18.82,18.82,0,0,0,1.24-2.27,21.26,21.26,0,0,0,.94-2.44q0.27-.83.48-1.67t0.35-1.71c0-.36.09-0.75,0.13-1.17a8,8,0,0,0,0-1.25,4.26,4.26,0,0,0-.23-1.19,2.37,2.37,0,0,0-.64-1,1.41,1.41,0,0,0-.92-0.37,2.11,2.11,0,0,0-1,.23,4.09,4.09,0,0,0-.87.59,8.41,8.41,0,0,0-.7.69,10.81,10.81,0,0,0-1.49,2.12q-0.62,1.15-1.12,2.32T99.68,27.38Z" transform="translate(-0.85 -0.87)"/><path class="cls-1" d="M109.74,35.24l4-16q0.1-.37.23-0.79a3.1,3.1,0,0,1,.35-0.75,1.16,1.16,0,0,1,.57-0.47,1.26,1.26,0,0,1,.89.07,1.23,1.23,0,0,1,.67.52,1.46,1.46,0,0,1,.17.69,2.62,2.62,0,0,1-.13.79c-0.09.28-.17,0.53-0.23,0.75l-3,9.23-0.37,1.14q0.57-1.1,1.17-2.19T115.36,26q0.67-1.17,1.39-2.26t1.52-2.16q0.37-.47.77-0.9t0.84-.87q0.47-.47.94-0.89a4.09,4.09,0,0,1,1.07-.69,2,2,0,0,1,1-.13,1.37,1.37,0,0,1,.89.5,2.32,2.32,0,0,1,.47,1.07,5.24,5.24,0,0,1,.07,1.17,10.45,10.45,0,0,1-.35,2.42q-0.32,1.19-.69,2.36t-0.94,2.47q-0.5,1.2-1,2.44L121,31.76q-0.22.6-.38,1.17l-0.15.47a2.27,2.27,0,0,0-.1.53,1.13,1.13,0,0,0,.07.48,0.56,0.56,0,0,0,.35.32,1.69,1.69,0,0,0,1.4-.08,5.48,5.48,0,0,0,1.24-.79A8.73,8.73,0,0,0,125,32.08q0.68-1,1.25-2.06,0.3-.5.55-1t0.48-1.05a2.35,2.35,0,0,0,.18-0.4,0.29,0.29,0,0,1,.35-0.2,0.32,0.32,0,0,1,.3.18,0.46,0.46,0,0,1,0,.38,2.46,2.46,0,0,1-.2.43q-0.13.23-.27,0.43l-0.6,1.12q-0.3.55-.67,1.12-0.67,1.07-1.44,2.07a10.06,10.06,0,0,1-1.74,1.77,5.8,5.8,0,0,1-1.2.77,3.09,3.09,0,0,1-1.34.3,1.92,1.92,0,0,1-1.07-.28,2.21,2.21,0,0,1-.7-0.74,3.27,3.27,0,0,1-.38-1,5.21,5.21,0,0,1-.12-1.09,9.65,9.65,0,0,1,.25-2.46q0.28-1.22.65-2.39a31.06,31.06,0,0,1,1.09-3l1.25-3,0.42-1q0.22-.48.38-1a4,4,0,0,0,.13-0.59c0-.17-0.12-0.24-0.44-0.22a2.25,2.25,0,0,0-1,.28,4,4,0,0,0-.83.62,7.9,7.9,0,0,0-.72.79q-0.33.42-.6,0.79a37.32,37.32,0,0,0-2.57,3.76q-1.17,2-2.24,4l-1.05,2q-0.52,1-1,2.07l-0.42.82a8.3,8.3,0,0,0-.38.85l-0.1.3a0.78,0.78,0,0,1-.4.52,0.93,0.93,0,0,1-.59.1,0.74,0.74,0,0,1-.47-0.28A0.71,0.71,0,0,1,109.74,35.24Z" transform="translate(-0.85 -0.87)"/><path class="cls-1" d="M142.53,27.88a9.11,9.11,0,0,1-1.14,1.84,14.07,14.07,0,0,1-1.47,1.57,15.3,15.3,0,0,1-1.71,1.35q-0.9.62-1.8,1.19l-0.52,1.64-0.52,1.64q-0.84,2.51-1.76,5a26.72,26.72,0,0,1-2.32,4.75,13.37,13.37,0,0,1-1.39,1.91,6.61,6.61,0,0,1-1.82,1.47,4.37,4.37,0,0,1-2.34.48,2.72,2.72,0,0,1-2-1.12,3.81,3.81,0,0,1-.77-1.69,5.78,5.78,0,0,1,0-1.86,8.55,8.55,0,0,1,.48-1.85,10.21,10.21,0,0,1,.82-1.69,12.07,12.07,0,0,1,2.57-3.09A33,33,0,0,1,130,36.94l1.45-.92L133,35.1q0.33-1.2.65-2.41t0.69-2.37a10.93,10.93,0,0,1-1.1,1.34A8.46,8.46,0,0,1,131.57,33a5.13,5.13,0,0,1-2,.8,1.76,1.76,0,0,1-.89-0.08A2,2,0,0,1,128,33.3a2.67,2.67,0,0,1-.5-0.7,3.73,3.73,0,0,1-.3-0.84,6.84,6.84,0,0,1-.13-2.52,17.87,17.87,0,0,1,.5-2.49,22.5,22.5,0,0,1,.8-2.47q0.47-1.2,1-2.37,0.43-1,1-1.91a8.24,8.24,0,0,1,1.25-1.71,0.8,0.8,0,0,1,1.37.5,1.5,1.5,0,0,1-.05.74,5.92,5.92,0,0,0-.18.74,31.33,31.33,0,0,1-1.07,3.48q-0.64,1.71-1.2,3.44l-0.4,1.22q-0.2.62-.37,1.29c-0.07.2-.13,0.4-0.18,0.6s-0.11.4-.15,0.6-0.06.25-.1,0.4-0.08.32-.12,0.5a1.52,1.52,0,0,0,0,.5,0.55,0.55,0,0,0,.2.37,1,1,0,0,0,.6.2,2.32,2.32,0,0,0,.67-0.1,3.07,3.07,0,0,0,.65-0.28,2.51,2.51,0,0,0,.52-0.38,10.69,10.69,0,0,0,1.39-1.45q0.62-.79,1.19-1.65l0.38-.65c0.12-.21.24-0.43,0.35-0.65l0,0q0.4-1.27.83-2.52t1-2.49q0.47-1.07,1.07-2.24a5.18,5.18,0,0,1,1.57-1.87,2,2,0,0,1,.35-0.2,1.26,1.26,0,0,1,.43-0.12,0.73,0.73,0,0,1,.38.07,0.5,0.5,0,0,1,.23.35,0.49,0.49,0,0,1-.08.37,0.49,0.49,0,0,1-.35.2,0.29,0.29,0,0,1-.07.3l-0.17.3a12.31,12.31,0,0,0-.58,1.82q-0.22.92-.48,1.86-0.64,2.37-1.27,4.7t-1.3,4.66l0.9-.64A18.78,18.78,0,0,0,139.21,31a12.13,12.13,0,0,0,1.45-1.47q0.33-.4.62-0.82a7.64,7.64,0,0,0,.52-0.89,1.3,1.3,0,0,1,.18-0.32,0.27,0.27,0,0,1,.35-0.05A0.33,0.33,0,0,1,142.53,27.88Zm-15.78,12.5a12.27,12.27,0,0,0-1.62,1.92A10.31,10.31,0,0,0,124,44.53a11.88,11.88,0,0,0-.35,1.2A4.88,4.88,0,0,0,123.5,47a4.23,4.23,0,0,0,.22,1.22,2.45,2.45,0,0,0,.67,1,1.84,1.84,0,0,0,1,.54,2.57,2.57,0,0,0,1.05,0,3.24,3.24,0,0,0,1-.43,4.28,4.28,0,0,0,.87-0.72,6.28,6.28,0,0,0,1.32-2q0.45-1.12.82-2.29,0.64-2.07,1.19-4.13T132.74,36q-1.61,1-3.13,2A21.14,21.14,0,0,0,126.76,40.38Z" transform="translate(-0.85 -0.87)"/></svg>